<svg t="1751945257078" class="icon" viewBox="0 0 1024 1024" version="1.1" xmlns="http://www.w3.org/2000/svg" p-id="1612" width="16" height="16"><path d="M853.97759999 101.12H173.22239999A80.1984 80.1984 0 0 0 93.11999999 181.2224v498.3552a80.2176 80.2176 0 0 0 80.1024 80.1216h680.7552c44.16 0 80.1024-35.9424 80.1024-80.1216V181.2224c0-44.16-35.9424-80.1024-80.1024-80.1024zM880.31999999 679.5776c0 14.5344-11.8272 26.3424-26.3424 26.3424H173.22239999A26.3808 26.3808 0 0 1 146.87999999 679.5776V181.2224c0-14.5152 11.8272-26.3424 26.3424-26.3424h680.7552c14.5152 0 26.3424 11.8272 26.3424 26.3424v498.3552zM734.39999999 840.32h-441.6a26.88 26.88 0 0 0 0 53.76h441.6a26.88 26.88 0 0 0 0-53.76z" p-id="1613" fill="#CED0D6"></path><path d="M244.85759999 554.72h46.9056v-95.1168h83.3664v-39.2832h-83.3664v-61.1904h97.632v-38.9952H244.85759999zM411.01439999 359.1296h65.9328v195.5904h46.9248V359.1296h66.5664v-38.9952h-179.424zM705.56159999 320.1344h-77.0304v234.5664h46.9056v-83.3664h31.392c50.4 0 90.6624-24.0768 90.6624-77.664 0-55.4688-39.936-73.536-91.9296-73.536z m-1.9008 114.1248h-28.224v-77.0304h26.6304c32.3328 0 49.44 9.1968 49.44 36.4416 0.0192 26.9568-15.5136 40.5888-47.8464 40.5888z" p-id="1614" fill="#CED0D6"></path></svg>